<?xml version="1.0" encoding="utf-8"?>
<!-- Generator: Adobe Illustrator 26.1.0, SVG Export Plug-In . SVG Version: 6.00 Build 0)  -->
<svg version="1.1" id="Layer_1" xmlns="http://www.w3.org/2000/svg" xmlns:xlink="http://www.w3.org/1999/xlink" x="0px" y="0px"
	 viewBox="0 0 80.5 81.5" style="enable-background:new 0 0 80.5 81.5;" xml:space="preserve">
<style type="text/css">
	.st0{fill:#FFFFFF;}
	.st1{fill:url(#SVGID_1_);}
</style>
<path class="st0" d="M28.4,39.8c0.8,0,1.4-0.6,1.4-1.2v-8.4h-0.1v0H3.2c-0.8,0-1.4,0.6-1.4,1.2v7.2c0,0.7,0.6,1.2,1.4,1.2h13.1v0
	H28.4z"/>
<path class="st0" d="M44.4,17.5c0-0.8-0.6-1.4-1.4-1.4h-9.8v0h0v9c0,0.8,0.6,1.4,1.4,1.4h8.4c0.8,0,1.4-0.6,1.4-1.4v-4h0V17.5z"/>
<path class="st0" d="M39.1,67.4c1.8-0.1,3.5-0.4,5.2-0.8V42.3c0-0.8,0.6-1.4,1.4-1.4h15.1c0.8,0,1.4-0.6,1.4-1.4V31
	c0-0.8-0.6-1.4-1.4-1.4H44.3v0h-9.9c-0.8,0-1.4,0.6-1.4,1.4v36.1C34.9,67.4,37,67.5,39.1,67.4z"/>
<path class="st0" d="M38.8,0.7c-16.2,0-30.2,9.7-36.4,23.7l11.5,0c0.6,0,1.2-0.3,1.6-0.8c5.3-7.2,13.7-11.8,23.3-11.8
	c3.1,0,6,0.5,8.8,1.4c0.6,0.2,1.3-0.3,1.3-1V2.8c0-0.5-0.3-0.9-0.8-1C45.1,1.1,42,0.7,38.8,0.7z"/>
<linearGradient id="SVGID_1_" gradientUnits="userSpaceOnUse" x1="18.0153" y1="74.2976" x2="73.5092" y2="18.8037">
	<stop  offset="0" style="stop-color:#C57FFF"/>
	<stop  offset="1" style="stop-color:#5B7AFC"/>
</linearGradient>
<path class="st1" d="M74.3,22.2C69.7,13.4,62,6.6,52.6,3.1c-0.6-0.2-1.3,0.3-1.3,0.9v10.6c0,0.8,0.5,1.5,1.1,1.8
	c9.8,4.9,16.3,15.2,15.6,27C67.3,56,58.3,66.3,46.5,69.2c-1.7,0.4-3.4,0.7-5.2,0.8c-2.1,0.1-4.2,0-6.1-0.3c-1.8-0.3-3.5-0.8-5.2-1.4
	c-4.4-1.6-8.3-4.3-11.3-7.7c-1.9-2.1-3.5-4.6-4.7-7.2c-0.2-0.5-0.7-0.9-1.3-0.9H10c4.5,11.9,16,20.4,29.5,20.4
	c16.4,0,29.9-12.6,31.4-28.7c0.1-0.8,0.4-1.5,1.1-1.8c1.3-0.7,2.6,0.2,2.5,1.4c-0.2,2-0.5,3.9-1,5.9c-4.2,16.1-19.7,27-36.3,25.6
	C21.7,74,9.7,62.8,6.4,48.6c-0.2-0.9-0.9-1.5-1.8-1.7l-3.1-0.5C2.8,56,7.6,64.6,14.6,70.8c3.1,2.7,6.6,4.9,10.5,6.5
	c1.6,0.7,3.3,1.2,5,1.7c2.1,0.6,4.4,1,6.7,1.2c1.5,0.1,3.1,0.2,4.6,0.1c18-0.5,33.8-13.6,37.2-31.7C80.4,39.2,78.6,29.9,74.3,22.2z"
	/>
</svg>
