<?xml version="1.0" encoding="utf-8"?>
<!-- Generator: Adobe Illustrator 26.1.0, SVG Export Plug-In . SVG Version: 6.00 Build 0)  -->
<svg version="1.1" id="Layer_1" xmlns="http://www.w3.org/2000/svg" xmlns:xlink="http://www.w3.org/1999/xlink" x="0px" y="0px"
	 viewBox="0 0 281.6 81.5" enable-background="new 0 0 281.6 81.5" xml:space="preserve">
<g>
	<path fill="#FFFFFF" d="M84.7,23.3v-3.2h14.2v3.2h-5.2v14.1h-3.8V23.3H84.7z"/>
	<path fill="#FFFFFF" d="M105,20.1v6.6h7v-6.6h3.8v17.3H112V30h-7v7.5h-3.8V20.1H105z"/>
	<path fill="#FFFFFF" d="M118.3,25.2c0.4-1.1,0.9-2.1,1.7-2.9c0.7-0.8,1.6-1.5,2.7-1.9c1.1-0.5,2.2-0.7,3.6-0.7
		c1.3,0,2.5,0.2,3.6,0.7c1.1,0.5,1.9,1.1,2.7,1.9c0.7,0.8,1.3,1.8,1.7,2.9c0.4,1.1,0.6,2.3,0.6,3.6c0,1.3-0.2,2.4-0.6,3.5
		c-0.4,1.1-0.9,2-1.7,2.8c-0.7,0.8-1.6,1.4-2.7,1.9c-1.1,0.5-2.2,0.7-3.6,0.7c-1.3,0-2.5-0.2-3.6-0.7c-1.1-0.5-2-1.1-2.7-1.9
		c-0.7-0.8-1.3-1.8-1.7-2.8c-0.4-1.1-0.6-2.3-0.6-3.5C117.7,27.5,117.9,26.3,118.3,25.2z M121.8,31c0.2,0.7,0.4,1.3,0.8,1.9
		c0.4,0.5,0.9,1,1.5,1.3c0.6,0.3,1.3,0.5,2.2,0.5s1.6-0.2,2.2-0.5c0.6-0.3,1.1-0.8,1.5-1.3s0.6-1.2,0.8-1.9c0.2-0.7,0.3-1.4,0.3-2.1
		c0-0.8-0.1-1.5-0.3-2.2c-0.2-0.7-0.4-1.3-0.8-1.9s-0.9-1-1.5-1.3c-0.6-0.3-1.3-0.5-2.2-0.5s-1.6,0.2-2.2,0.5
		c-0.6,0.3-1.1,0.8-1.5,1.3c-0.4,0.6-0.6,1.2-0.8,1.9c-0.2,0.7-0.3,1.4-0.3,2.2C121.5,29.6,121.6,30.3,121.8,31z"/>
	<path fill="#FFFFFF" d="M141.9,20.1l4,11.9h0l3.8-11.9h5.4v17.3h-3.6V25.2h0l-4.2,12.3h-2.9l-4.2-12.1h0v12.1h-3.6V20.1H141.9z"/>
	<path fill="#FFFFFF" d="M171.4,20.1v3.2h-9.1V27h8.4v3h-8.4v4.2h9.3v3.2h-13.1V20.1H171.4z"/>
	<path fill="#FFFFFF" d="M187.1,20.1v14.1h8.4v3.2h-12.2V20.1H187.1z"/>
	<path fill="#FFFFFF" d="M211,20.1v3.2h-9.1V27h8.4v3h-8.4v4.2h9.3v3.2h-13.1V20.1H211z"/>
	<path fill="#FFFFFF" d="M223.9,37.3c-0.8,0.3-1.7,0.5-2.5,0.5c-1.3,0-2.5-0.2-3.6-0.7c-1.1-0.5-2-1.1-2.7-1.9
		c-0.7-0.8-1.3-1.8-1.7-2.8c-0.4-1.1-0.6-2.3-0.6-3.5c0-1.3,0.2-2.5,0.6-3.6c0.4-1.1,0.9-2.1,1.7-2.9c0.7-0.8,1.6-1.5,2.7-1.9
		c1.1-0.5,2.2-0.7,3.6-0.7c0.9,0,1.7,0.1,2.6,0.4c0.8,0.3,1.6,0.7,2.3,1.2c0.7,0.5,1.2,1.2,1.7,1.9c0.4,0.8,0.7,1.6,0.8,2.6h-3.6
		c-0.2-1-0.7-1.7-1.3-2.2c-0.6-0.5-1.4-0.7-2.4-0.7c-0.9,0-1.6,0.2-2.2,0.5c-0.6,0.3-1.1,0.8-1.5,1.3c-0.4,0.6-0.6,1.2-0.8,1.9
		s-0.3,1.4-0.3,2.2c0,0.7,0.1,1.4,0.3,2.1c0.2,0.7,0.4,1.3,0.8,1.9c0.4,0.5,0.9,1,1.5,1.3c0.6,0.3,1.3,0.5,2.2,0.5
		c1.3,0,2.2-0.3,2.9-1s1.1-1.6,1.2-2.8h-3.8v-2.8h7.3v9.4h-2.4l-0.4-2C225.5,36.3,224.7,36.9,223.9,37.3z"/>
	<path fill="#FFFFFF" d="M241,20.1l6.5,17.3h-4l-1.3-3.9h-6.5l-1.4,3.9h-3.8l6.5-17.3H241z M241.2,30.7l-2.2-6.4h0l-2.3,6.4H241.2z"
		/>
	<path fill="#FFFFFF" d="M259.4,24.7c-0.2-0.4-0.5-0.7-0.8-1c-0.3-0.3-0.7-0.5-1.2-0.6c-0.4-0.2-0.9-0.2-1.3-0.2
		c-0.9,0-1.6,0.2-2.2,0.5c-0.6,0.3-1.1,0.8-1.5,1.3s-0.6,1.2-0.8,1.9c-0.2,0.7-0.3,1.4-0.3,2.2c0,0.7,0.1,1.4,0.3,2.1
		c0.2,0.7,0.4,1.3,0.8,1.9s0.9,1,1.5,1.3c0.6,0.3,1.3,0.5,2.2,0.5c1.2,0,2.1-0.4,2.7-1.1c0.7-0.7,1.1-1.6,1.2-2.8h3.7
		c-0.1,1.1-0.3,2.1-0.8,2.9c-0.4,0.9-0.9,1.6-1.6,2.2c-0.7,0.6-1.4,1.1-2.3,1.4c-0.9,0.3-1.9,0.5-2.9,0.5c-1.3,0-2.5-0.2-3.6-0.7
		c-1.1-0.5-2-1.1-2.7-1.9c-0.7-0.8-1.3-1.8-1.7-2.8c-0.4-1.1-0.6-2.3-0.6-3.5c0-1.3,0.2-2.5,0.6-3.6s0.9-2.1,1.7-2.9
		c0.7-0.8,1.6-1.5,2.7-1.9s2.2-0.7,3.6-0.7c1,0,1.9,0.1,2.7,0.4c0.8,0.3,1.6,0.7,2.3,1.2c0.7,0.5,1.2,1.2,1.7,2
		c0.4,0.8,0.7,1.7,0.8,2.7h-3.7C259.7,25.5,259.6,25.1,259.4,24.7z"/>
	<path fill="#FFFFFF" d="M263.6,20.1h4.3l4,6.8l4-6.8h4.2l-6.4,10.7v6.6H270v-6.7L263.6,20.1z"/>
</g>
<path fill="#FFFFFF" d="M28.4,39.8c0.8,0,1.4-0.6,1.4-1.2v-8.4h-0.1v0H3.2c-0.8,0-1.4,0.6-1.4,1.2v7.2c0,0.7,0.6,1.2,1.4,1.2h13.1v0
	H28.4z"/>
<path fill="#FFFFFF" d="M44.4,17.5c0-0.8-0.6-1.4-1.4-1.4h-9.8v0h0v9c0,0.8,0.6,1.4,1.4,1.4h8.4c0.8,0,1.4-0.6,1.4-1.4v-4h0V17.5z"
	/>
<path fill="#FFFFFF" d="M39.1,67.4c1.8-0.1,3.5-0.4,5.2-0.8V42.3c0-0.8,0.6-1.4,1.4-1.4h15.1c0.8,0,1.4-0.6,1.4-1.4V31
	c0-0.8-0.6-1.4-1.4-1.4H44.3v0h-9.9c-0.8,0-1.4,0.6-1.4,1.4v36.1C34.9,67.4,37,67.5,39.1,67.4z"/>
<path fill="#FFFFFF" d="M38.8,0.7c-16.2,0-30.2,9.7-36.4,23.7l11.5,0c0.6,0,1.2-0.3,1.6-0.8c5.3-7.2,13.7-11.8,23.3-11.8
	c3.1,0,6,0.5,8.8,1.4c0.6,0.2,1.3-0.3,1.3-1V2.8c0-0.5-0.3-0.9-0.8-1C45.1,1.1,42,0.7,38.8,0.7z"/>
<linearGradient id="SVGID_1_" gradientUnits="userSpaceOnUse" x1="18.0153" y1="74.2976" x2="73.5092" y2="18.8037">
	<stop  offset="0" style="stop-color:#C57FFF"/>
	<stop  offset="1" style="stop-color:#5B7AFC"/>
</linearGradient>
<path fill="url(#SVGID_1_)" d="M74.3,22.2C69.7,13.4,62,6.6,52.6,3.1c-0.6-0.2-1.3,0.3-1.3,0.9v10.6c0,0.8,0.5,1.5,1.1,1.8
	c9.8,4.9,16.3,15.2,15.6,27C67.3,56,58.3,66.3,46.5,69.2c-1.7,0.4-3.4,0.7-5.2,0.8c-2.1,0.1-4.2,0-6.1-0.3c-1.8-0.3-3.5-0.8-5.2-1.4
	c-4.4-1.6-8.3-4.3-11.3-7.7c-1.9-2.1-3.5-4.6-4.7-7.2c-0.2-0.5-0.7-0.9-1.3-0.9H10c4.5,11.9,16,20.4,29.5,20.4
	c16.4,0,29.9-12.6,31.4-28.7c0.1-0.8,0.4-1.5,1.1-1.8c1.3-0.7,2.6,0.2,2.5,1.4c-0.2,2-0.5,3.9-1,5.9c-4.2,16.1-19.7,27-36.3,25.6
	C21.7,74,9.7,62.8,6.4,48.6c-0.2-0.9-0.9-1.5-1.8-1.7l-3.1-0.5C2.8,56,7.6,64.6,14.6,70.8c3.1,2.7,6.6,4.9,10.5,6.5
	c1.6,0.7,3.3,1.2,5,1.7c2.1,0.6,4.4,1,6.7,1.2c1.5,0.1,3.1,0.2,4.6,0.1c18-0.5,33.8-13.6,37.2-31.7C80.4,39.2,78.6,29.9,74.3,22.2z"
	/>
<g>
	<path fill="#B082F9" d="M85.8,46.1v-1.6h11.3v1.6h-4.7v12.6h-1.9V46.1H85.8z"/>
	<path fill="#B082F9" d="M108.6,44.5v1.6h-7.9v4.5h7.4v1.6h-7.4v4.9h8v1.6h-9.8V44.5H108.6z"/>
	<path fill="#B082F9" d="M119.6,46.5c-0.7-0.5-1.6-0.8-2.6-0.8c-0.8,0-1.6,0.2-2.2,0.5c-0.6,0.3-1.1,0.7-1.5,1.3
		c-0.4,0.5-0.7,1.1-0.9,1.8c-0.2,0.7-0.3,1.4-0.3,2.1c0,0.8,0.1,1.6,0.3,2.3c0.2,0.7,0.5,1.3,0.9,1.9c0.4,0.5,0.9,1,1.5,1.3
		c0.6,0.3,1.3,0.5,2.2,0.5c0.6,0,1.2-0.1,1.7-0.3c0.5-0.2,0.9-0.5,1.2-0.9c0.4-0.4,0.6-0.8,0.8-1.3c0.2-0.5,0.3-1,0.4-1.6h1.9
		c-0.2,1.8-0.8,3.2-1.8,4.2c-1,1-2.5,1.5-4.3,1.5c-1.1,0-2.1-0.2-2.9-0.6c-0.8-0.4-1.5-0.9-2-1.6c-0.5-0.7-0.9-1.4-1.2-2.3
		s-0.4-1.9-0.4-2.9s0.1-2,0.4-2.9c0.3-0.9,0.7-1.7,1.3-2.4c0.6-0.7,1.3-1.2,2.1-1.6c0.8-0.4,1.8-0.6,2.9-0.6c0.7,0,1.4,0.1,2.1,0.3
		c0.7,0.2,1.2,0.5,1.8,0.9c0.5,0.4,0.9,0.9,1.3,1.4c0.3,0.6,0.6,1.2,0.7,2H121C120.8,47.8,120.3,47,119.6,46.5z"/>
	<path fill="#B082F9" d="M127.4,44.5v6.1h7.5v-6.1h1.9v14.2h-1.9v-6.5h-7.5v6.5h-1.9V44.5H127.4z"/>
	<path fill="#B082F9" d="M141.9,44.5l7.5,11.5h0V44.5h1.8v14.2h-2.1l-7.4-11.4h0v11.4h-1.8V44.5H141.9z"/>
	<path fill="#B082F9" d="M154,48.8c0.3-0.9,0.7-1.7,1.3-2.4c0.6-0.7,1.3-1.2,2.1-1.6c0.8-0.4,1.8-0.6,3-0.6s2.1,0.2,3,0.6
		c0.8,0.4,1.6,1,2.1,1.6c0.6,0.7,1,1.5,1.3,2.4c0.3,0.9,0.4,1.8,0.4,2.8c0,1-0.1,1.9-0.4,2.8c-0.3,0.9-0.7,1.7-1.3,2.4
		c-0.6,0.7-1.3,1.2-2.1,1.6c-0.8,0.4-1.8,0.6-3,0.6s-2.1-0.2-3-0.6s-1.6-0.9-2.1-1.6c-0.6-0.7-1-1.5-1.3-2.4
		c-0.3-0.9-0.4-1.8-0.4-2.8C153.6,50.7,153.7,49.7,154,48.8z M155.7,53.7c0.2,0.7,0.5,1.3,0.9,1.9c0.4,0.6,0.9,1,1.5,1.3
		c0.6,0.3,1.4,0.5,2.2,0.5c0.9,0,1.6-0.2,2.2-0.5s1.1-0.8,1.5-1.3c0.4-0.6,0.7-1.2,0.9-1.9s0.3-1.4,0.3-2.1c0-0.7-0.1-1.4-0.3-2.1
		s-0.5-1.3-0.9-1.9c-0.4-0.6-0.9-1-1.5-1.3c-0.6-0.3-1.4-0.5-2.2-0.5c-0.9,0-1.6,0.2-2.2,0.5c-0.6,0.3-1.1,0.8-1.5,1.3
		c-0.4,0.6-0.7,1.2-0.9,1.9c-0.2,0.7-0.3,1.4-0.3,2.1C155.4,52.3,155.5,53,155.7,53.7z"/>
	<path fill="#B082F9" d="M171.4,44.5v12.6h7.5v1.6h-9.4V44.5H171.4z"/>
	<path fill="#B082F9" d="M180.3,48.8c0.3-0.9,0.7-1.7,1.3-2.4c0.6-0.7,1.3-1.2,2.1-1.6c0.8-0.4,1.8-0.6,3-0.6s2.1,0.2,3,0.6
		c0.8,0.4,1.6,1,2.1,1.6c0.6,0.7,1,1.5,1.3,2.4c0.3,0.9,0.4,1.8,0.4,2.8c0,1-0.1,1.9-0.4,2.8c-0.3,0.9-0.7,1.7-1.3,2.4
		c-0.6,0.7-1.3,1.2-2.1,1.6c-0.8,0.4-1.8,0.6-3,0.6s-2.1-0.2-3-0.6s-1.6-0.9-2.1-1.6c-0.6-0.7-1-1.5-1.3-2.4
		c-0.3-0.9-0.4-1.8-0.4-2.8C179.9,50.7,180,49.7,180.3,48.8z M182.1,53.7c0.2,0.7,0.5,1.3,0.9,1.9c0.4,0.6,0.9,1,1.5,1.3
		c0.6,0.3,1.4,0.5,2.2,0.5c0.9,0,1.6-0.2,2.2-0.5s1.1-0.8,1.5-1.3c0.4-0.6,0.7-1.2,0.9-1.9s0.3-1.4,0.3-2.1c0-0.7-0.1-1.4-0.3-2.1
		s-0.5-1.3-0.9-1.9c-0.4-0.6-0.9-1-1.5-1.3c-0.6-0.3-1.4-0.5-2.2-0.5c-0.9,0-1.6,0.2-2.2,0.5c-0.6,0.3-1.1,0.8-1.5,1.3
		c-0.4,0.6-0.7,1.2-0.9,1.9c-0.2,0.7-0.3,1.4-0.3,2.1C181.8,52.3,181.9,53,182.1,53.7z"/>
	<path fill="#B082F9" d="M204.4,58.5c-0.8,0.3-1.6,0.5-2.5,0.5c-1.1,0-2-0.2-2.8-0.6c-0.8-0.4-1.5-0.9-2.1-1.6
		c-0.6-0.7-1-1.4-1.3-2.3c-0.3-0.9-0.5-1.8-0.5-2.7c0-1,0.1-2,0.4-2.9s0.7-1.7,1.3-2.5s1.3-1.3,2.1-1.7c0.8-0.4,1.8-0.6,2.9-0.6
		c0.8,0,1.5,0.1,2.2,0.3c0.7,0.2,1.3,0.5,1.8,0.8c0.5,0.4,1,0.9,1.3,1.5c0.4,0.6,0.6,1.3,0.7,2.1h-1.9c-0.1-0.5-0.3-1-0.5-1.4
		c-0.3-0.4-0.6-0.7-0.9-1s-0.8-0.4-1.3-0.6s-1-0.2-1.5-0.2c-0.9,0-1.6,0.2-2.2,0.5s-1.1,0.8-1.5,1.4c-0.4,0.6-0.7,1.2-0.9,1.9
		c-0.2,0.7-0.3,1.5-0.3,2.2c0,0.7,0.1,1.5,0.3,2.1c0.2,0.7,0.5,1.3,0.9,1.8s0.9,0.9,1.5,1.2c0.6,0.3,1.3,0.5,2.1,0.5
		c0.7,0,1.4-0.1,2-0.4c0.6-0.2,1-0.6,1.4-1c0.4-0.4,0.7-0.9,0.9-1.5c0.2-0.6,0.3-1.2,0.3-1.8H202v-1.6h6.2v7.5H207l-0.5-1.8
		C205.9,57.7,205.2,58.2,204.4,58.5z"/>
	<path fill="#B082F9" d="M213,44.5v14.2h-1.9V44.5H213z"/>
	<path fill="#B082F9" d="M226.1,44.5v1.6h-7.9v4.5h7.4v1.6h-7.4v4.9h8v1.6h-9.8V44.5H226.1z"/>
	<path fill="#B082F9" d="M235.7,46.5c-0.6-0.5-1.4-0.7-2.4-0.7c-0.4,0-0.8,0-1.2,0.1c-0.4,0.1-0.7,0.2-1,0.4s-0.5,0.4-0.7,0.7
		c-0.2,0.3-0.3,0.7-0.3,1.2c0,0.4,0.1,0.8,0.4,1.1c0.3,0.3,0.6,0.5,1,0.7s0.9,0.3,1.5,0.4c0.5,0.1,1.1,0.2,1.7,0.4
		c0.6,0.1,1.1,0.3,1.7,0.5c0.5,0.2,1,0.4,1.5,0.7c0.4,0.3,0.8,0.7,1,1.2c0.3,0.5,0.4,1,0.4,1.7c0,0.8-0.2,1.4-0.5,1.9
		c-0.3,0.5-0.8,1-1.3,1.3c-0.5,0.3-1.1,0.6-1.8,0.7c-0.7,0.2-1.3,0.2-2,0.2c-0.8,0-1.5-0.1-2.3-0.3c-0.7-0.2-1.3-0.5-1.9-0.9
		c-0.5-0.4-1-0.9-1.3-1.5c-0.3-0.6-0.5-1.4-0.5-2.2h1.8c0,0.6,0.1,1.1,0.3,1.5s0.5,0.8,0.9,1.1s0.8,0.5,1.3,0.6
		c0.5,0.1,1,0.2,1.5,0.2c0.4,0,0.8,0,1.3-0.1c0.4-0.1,0.8-0.2,1.2-0.4c0.3-0.2,0.6-0.5,0.8-0.8c0.2-0.3,0.3-0.8,0.3-1.3
		c0-0.5-0.1-0.9-0.4-1.2c-0.3-0.3-0.6-0.6-1-0.7c-0.4-0.2-0.9-0.3-1.5-0.5c-0.5-0.1-1.1-0.2-1.7-0.4c-0.6-0.1-1.1-0.3-1.7-0.4
		c-0.5-0.2-1-0.4-1.5-0.7c-0.4-0.3-0.8-0.6-1-1.1c-0.3-0.4-0.4-1-0.4-1.6c0-0.7,0.1-1.3,0.4-1.9s0.7-1,1.2-1.3
		c0.5-0.3,1-0.6,1.6-0.8c0.6-0.2,1.2-0.2,1.9-0.2c0.7,0,1.4,0.1,2,0.3c0.6,0.2,1.2,0.4,1.6,0.8s0.8,0.8,1.1,1.4
		c0.3,0.6,0.4,1.2,0.4,2h-1.8C236.7,47.7,236.3,46.9,235.7,46.5z"/>
	<path fill="#B082F9" d="M249.1,44.5v14.2h-1.9V44.5H249.1z"/>
	<path fill="#B082F9" d="M254.4,44.5l7.5,11.5h0V44.5h1.8v14.2h-2.1l-7.4-11.4h0v11.4h-1.8V44.5H254.4z"/>
	<path fill="#B082F9" d="M275.4,46.5c-0.7-0.5-1.6-0.8-2.6-0.8c-0.8,0-1.6,0.2-2.2,0.5c-0.6,0.3-1.1,0.7-1.5,1.3
		c-0.4,0.5-0.7,1.1-0.9,1.8s-0.3,1.4-0.3,2.1c0,0.8,0.1,1.6,0.3,2.3s0.5,1.3,0.9,1.9c0.4,0.5,0.9,1,1.5,1.3c0.6,0.3,1.3,0.5,2.2,0.5
		c0.6,0,1.2-0.1,1.7-0.3c0.5-0.2,0.9-0.5,1.2-0.9c0.4-0.4,0.6-0.8,0.8-1.3c0.2-0.5,0.3-1,0.4-1.6h1.9c-0.2,1.8-0.8,3.2-1.8,4.2
		c-1,1-2.5,1.5-4.3,1.5c-1.1,0-2.1-0.2-2.9-0.6s-1.5-0.9-2-1.6c-0.5-0.7-0.9-1.4-1.2-2.3c-0.3-0.9-0.4-1.9-0.4-2.9s0.1-2,0.4-2.9
		c0.3-0.9,0.7-1.7,1.3-2.4s1.3-1.2,2.1-1.6c0.8-0.4,1.8-0.6,2.9-0.6c0.7,0,1.4,0.1,2.1,0.3c0.7,0.2,1.2,0.5,1.8,0.9
		c0.5,0.4,0.9,0.9,1.3,1.4s0.6,1.2,0.7,2h-1.9C276.6,47.8,276.2,47,275.4,46.5z"/>
</g>
</svg>
